<svg  viewBox="0 0 34 33" fill="none" xmlns="http://www.w3.org/2000/svg">
<path d="M15.1703 0.500637C7.50199 1.33414 1.33403 7.5021 0.500524 15.0037C-0.332984 22.8386 4.16796 29.8401 11.0027 32.5073C11.5028 32.674 12.0029 32.3406 12.0029 31.6738V29.0066C12.0029 29.0066 11.3361 29.1733 10.5026 29.1733C8.1688 29.1733 7.16859 27.1729 7.00189 26.006C6.83518 25.3392 6.50178 24.8391 6.00168 24.339C5.50157 24.1723 5.33487 24.1723 5.33487 24.0056C5.33487 23.6722 5.83498 23.6722 6.00168 23.6722C7.00189 23.6722 7.83539 24.8391 8.1688 25.3392C9.00231 26.6728 10.0025 27.0062 10.5026 27.0062C11.1694 27.0062 11.6695 26.8395 12.0029 26.6728C12.1696 25.5059 12.6697 24.339 13.6699 23.6722C9.83581 22.8386 7.00189 20.6715 7.00189 17.0041C7.00189 15.1704 7.83539 13.3367 9.00231 12.003C8.8356 11.6696 8.6689 10.8361 8.6689 9.66922C8.6689 9.00242 8.6689 8.00221 9.16901 7.002C9.16901 7.002 11.5028 7.002 13.8367 9.16912C14.6702 8.83572 15.8371 8.66901 17.004 8.66901C18.1709 8.66901 19.3378 8.83572 20.338 9.16912C22.5051 7.002 25.0057 7.002 25.0057 7.002C25.3391 8.00221 25.3391 9.00242 25.3391 9.66922C25.3391 11.0028 25.1724 11.6696 25.0057 12.003C26.1726 13.3367 27.0061 15.0037 27.0061 17.0041C27.0061 20.6715 24.1722 22.8386 20.338 23.6722C21.3382 24.5057 22.005 26.006 22.005 27.5063V31.8405C22.005 32.3406 22.5051 32.8407 23.1719 32.674C29.3399 30.1735 33.6741 24.1723 33.6741 17.1708C33.6741 7.1687 25.1724 -0.666274 15.1703 0.500637Z" fill=""/>
</svg>
