<svg viewBox="0 0 13 14" fill="none" xmlns="http://www.w3.org/2000/svg">
<path fill-rule="evenodd" clip-rule="evenodd" d="M8.44243 2.12031C8.07091 2.12031 7.76973 1.81913 7.76973 1.44761C7.76973 1.07608 8.07091 0.774902 8.44243 0.774902H12.3273C12.6988 0.774902 13 1.07608 13 1.44761V5.33247C13 5.704 12.6988 6.00517 12.3273 6.00517C11.9558 6.00517 11.6546 5.704 11.6546 5.33247V3.07166L5.68072 9.04553C5.41801 9.30824 4.99208 9.30824 4.72937 9.04553C4.46667 8.78282 4.46667 8.35689 4.72937 8.09418L10.7032 2.12031H8.44243ZM1.96766 4.06274C1.80263 4.06274 1.64436 4.1283 1.52766 4.245C1.41097 4.36169 1.34541 4.51996 1.34541 4.68499V11.8072C1.34541 11.9723 1.41097 12.1305 1.52766 12.2472C1.64436 12.3639 1.80263 12.4295 1.96766 12.4295H9.08991C9.25494 12.4295 9.41321 12.3639 9.52991 12.2472C9.6466 12.1305 9.71216 11.9723 9.71216 11.8072V7.92238C9.71216 7.55086 10.0133 7.24968 10.3849 7.24968C10.7564 7.24968 11.0576 7.55086 11.0576 7.92238V11.8072C11.0576 12.3291 10.8503 12.8296 10.4813 13.1986C10.1122 13.5676 9.61177 13.7749 9.08991 13.7749H1.96766C1.4458 13.7749 0.945321 13.5676 0.576314 13.1986C0.207306 12.8296 0 12.3291 0 11.8072V4.68499C0 4.16314 0.207306 3.66266 0.576314 3.29365C0.945322 2.92464 1.4458 2.71733 1.96766 2.71733H5.85252C6.22405 2.71733 6.52523 3.01851 6.52523 3.39004C6.52523 3.76156 6.22405 4.06274 5.85252 4.06274H1.96766Z" fill="#2F0D68"/>
</svg>
