<svg  viewBox="0 0 35 34" fill="none" xmlns="http://www.w3.org/2000/svg">
<path d="M30.5515 0.200684H4.94615C2.73769 0.200684 0.945312 1.99306 0.945312 4.20152V29.8069C0.945312 32.0153 2.73769 33.8077 4.94615 33.8077H30.5515C32.76 33.8077 34.5523 32.0153 34.5523 29.8069V4.20152C34.5523 1.99306 32.76 0.200684 30.5515 0.200684ZM11.3475 13.0034V28.2065H6.54648V13.0034H11.3475ZM6.54648 8.57844C6.54648 7.4582 7.50669 6.60202 8.94699 6.60202C10.3873 6.60202 11.2915 7.4582 11.3475 8.57844C11.3475 9.69867 10.4513 10.6029 8.94699 10.6029C7.50669 10.6029 6.54648 9.69867 6.54648 8.57844ZM28.9512 28.2065H24.1502C24.1502 28.2065 24.1502 20.797 24.1502 20.2049C24.1502 18.6045 23.35 17.0042 21.3496 16.9722H21.2856C19.3492 16.9722 18.549 18.6205 18.549 20.2049C18.549 20.933 18.549 28.2065 18.549 28.2065H13.748V13.0034H18.549V15.0518C18.549 15.0518 20.0933 13.0034 23.198 13.0034C26.3746 13.0034 28.9512 15.1878 28.9512 19.6127V28.2065Z" fill=""/>
</svg>
