<svg  viewBox="0 0 35 34" fill="none" xmlns="http://www.w3.org/2000/svg">
<path d="M6.17441 0.200684C3.08097 0.200684 0.573242 2.70841 0.573242 5.80186V28.2065C0.573242 31.3 3.08097 33.8077 6.17441 33.8077H28.5791C31.6725 33.8077 34.1803 31.3 34.1803 28.2065V5.80186C34.1803 2.70841 31.6725 0.200684 28.5791 0.200684H6.17441ZM7.84351 7.40219H14.1948L18.7052 13.8113L24.1782 7.40219H26.1786L19.6085 15.0944L27.7102 26.6062H21.3604L16.1265 19.1703L9.77517 26.6062H7.77475L15.2232 17.8872L7.84351 7.40219ZM10.9067 9.00252L22.195 25.0059H24.647L13.3587 9.00252H10.9067Z" fill=""/>
</svg>
