<svg width="100" height="100" viewBox="0 0 100 100" fill="none" xmlns="http://www.w3.org/2000/svg">
<circle cx="50" cy="50" r="50" fill="#908EFF"/>
<path d="M52.0371 28C58.8704 28 64.0726 29.9111 67.6435 33.7333C71.2145 37.5556 73 42.9778 73 50C73 56.9778 71.2145 62.4 67.6435 66.2667C64.0726 70.0889 58.8704 72 52.0371 72H32V28H52.0371ZM50.3839 62.0667C53.6462 62.0667 55.9167 61.0889 57.1952 59.1333C58.4737 57.1333 59.1129 54.0889 59.1129 50C59.1129 45.9111 58.4737 42.8889 57.1952 40.9333C55.9167 38.9333 53.6462 37.9333 50.3839 37.9333H45.4903V62.0667H50.3839Z" fill="#2F0D68"/>
</svg>
